<svg width="101" height="100" viewBox="0 0 101 100" fill="none" xmlns="http://www.w3.org/2000/svg">
<path d="M50.0791 27.0833C45.5466 27.0833 41.1159 28.4274 37.3473 30.9455C33.5786 33.4636 30.6413 37.0427 28.9068 41.2302C27.1723 45.4176 26.7185 50.0254 27.6027 54.4708C28.487 58.9162 30.6696 62.9996 33.8745 66.2045C37.0795 69.4095 41.1628 71.5921 45.6082 72.4763C50.0536 73.3606 54.6614 72.9067 58.8489 71.1722C63.0364 69.4377 66.6155 66.5004 69.1336 62.7318C71.6517 58.9632 72.9957 54.5325 72.9957 50C72.9957 43.9221 70.5813 38.0932 66.2836 33.7955C61.9859 29.4978 56.1569 27.0833 50.0791 27.0833ZM50.0791 68.75C46.3707 68.75 42.7455 67.6503 39.6621 65.59C36.5787 63.5298 34.1755 60.6014 32.7563 57.1753C31.3372 53.7492 30.9659 49.9792 31.6893 46.3421C32.4128 42.7049 34.1986 39.364 36.8208 36.7417C39.4431 34.1195 42.784 32.3337 46.4211 31.6103C50.0583 30.8868 53.8283 31.2581 57.2544 32.6773C60.6805 34.0964 63.6088 36.4996 65.6691 39.5831C67.7294 42.6665 68.8291 46.2916 68.8291 50C68.8291 54.9728 66.8536 59.7419 63.3373 63.2582C59.821 66.7746 55.0519 68.75 50.0791 68.75ZM72.9957 0H27.1624C19.9795 0 13.0907 2.85341 8.01159 7.93252C2.93248 13.0116 0.079071 19.9004 0.079071 27.0833V72.9167C0.079071 76.4733 0.779602 79.9951 2.14067 83.281C3.50173 86.5669 5.49667 89.5526 8.01159 92.0675C13.0907 97.1466 19.9795 100 27.1624 100H72.9957C76.5524 100 80.0742 99.2995 83.3601 97.9384C86.646 96.5773 89.6316 94.5824 92.1465 92.0675C94.6615 89.5526 96.6564 86.5669 98.0175 83.281C99.3785 79.9951 100.079 76.4733 100.079 72.9167V27.0833C100.079 23.5267 99.3785 20.0049 98.0175 16.719C96.6564 13.4331 94.6615 10.4474 92.1465 7.93252C89.6316 5.4176 86.646 3.42266 83.3601 2.0616C80.0742 0.700531 76.5524 0 72.9957 0ZM95.9124 72.9167C95.9124 78.9945 93.498 84.8235 89.2003 89.1212C84.9026 93.4189 79.0736 95.8333 72.9957 95.8333H27.1624C21.0845 95.8333 15.2556 93.4189 10.9579 89.1212C6.66017 84.8235 4.24574 78.9945 4.24574 72.9167V27.0833C4.24574 21.0055 6.66017 15.1765 10.9579 10.8788C15.2556 6.58109 21.0845 4.16667 27.1624 4.16667H72.9957C79.0736 4.16667 84.9026 6.58109 89.2003 10.8788C93.498 15.1765 95.9124 21.0055 95.9124 27.0833V72.9167ZM81.3291 22.9167C81.3291 23.7408 81.0847 24.5463 80.6269 25.2315C80.169 25.9167 79.5183 26.4508 78.7569 26.7662C77.9956 27.0815 77.1578 27.164 76.3495 27.0033C75.5413 26.8425 74.7988 26.4457 74.2161 25.8629C73.6334 25.2802 73.2366 24.5378 73.0758 23.7295C72.915 22.9213 72.9975 22.0835 73.3129 21.3221C73.6283 20.5608 74.1623 19.91 74.8475 19.4522C75.5327 18.9944 76.3383 18.75 77.1624 18.75C78.2675 18.75 79.3273 19.189 80.1087 19.9704C80.8901 20.7518 81.3291 21.8116 81.3291 22.9167Z" fill="black"/>
</svg>
