<svg width="101" height="100" viewBox="0 0 101 100" fill="none" xmlns="http://www.w3.org/2000/svg">
<path d="M33.4124 25C33.4124 25.8241 33.1681 26.6297 32.7102 27.3149C32.2524 28.0001 31.6016 28.5341 30.8403 28.8495C30.0789 29.1649 29.2411 29.2474 28.4329 29.0866C27.6246 28.9258 26.8822 28.529 26.2995 27.9463C25.7168 27.3636 25.3199 26.6211 25.1592 25.8129C24.9984 25.0046 25.0809 24.1668 25.3963 23.4055C25.7116 22.6441 26.2457 21.9934 26.9309 21.5355C27.6161 21.0777 28.4217 20.8333 29.2458 20.8333C30.3508 20.8333 31.4106 21.2723 32.192 22.0537C32.9734 22.8351 33.4124 23.8949 33.4124 25ZM29.2458 39.5833C28.6932 39.5833 28.1633 39.8028 27.7726 40.1935C27.3819 40.5842 27.1624 41.1141 27.1624 41.6667V75C27.1624 75.5525 27.3819 76.0824 27.7726 76.4731C28.1633 76.8638 28.6932 77.0833 29.2458 77.0833C29.7983 77.0833 30.3282 76.8638 30.7189 76.4731C31.1096 76.0824 31.3291 75.5525 31.3291 75V41.6667C31.3291 41.1141 31.1096 40.5842 30.7189 40.1935C30.3282 39.8028 29.7983 39.5833 29.2458 39.5833ZM60.4958 39.5833C58.1275 39.5809 55.7862 40.0864 53.6299 41.0657C51.4735 42.0451 49.5523 43.4755 47.9958 45.2604V41.6667C47.9958 41.1141 47.7763 40.5842 47.3856 40.1935C46.9949 39.8028 46.465 39.5833 45.9124 39.5833C45.3599 39.5833 44.83 39.8028 44.4393 40.1935C44.0486 40.5842 43.8291 41.1141 43.8291 41.6667V75C43.8291 75.5525 44.0486 76.0824 44.4393 76.4731C44.83 76.8638 45.3599 77.0833 45.9124 77.0833C46.465 77.0833 46.9949 76.8638 47.3856 76.4731C47.7763 76.0824 47.9958 75.5525 47.9958 75V56.25C47.9958 52.9348 49.3127 49.7554 51.6569 47.4112C54.0011 45.067 57.1806 43.75 60.4958 43.75C63.811 43.75 66.9904 45.067 69.3346 47.4112C71.6788 49.7554 72.9958 52.9348 72.9958 56.25V75C72.9958 75.5525 73.2153 76.0824 73.606 76.4731C73.9967 76.8638 74.5266 77.0833 75.0791 77.0833C75.6316 77.0833 76.1615 76.8638 76.5522 76.4731C76.9429 76.0824 77.1624 75.5525 77.1624 75V56.25C77.1487 51.834 75.3883 47.6027 72.2657 44.4801C69.1431 41.3574 64.9118 39.5971 60.4958 39.5833ZM100.079 6.25V93.75C100.079 95.4076 99.4206 96.9973 98.2485 98.1694C97.0764 99.3415 95.4867 100 93.8291 100H6.3291C4.6715 100 3.08179 99.3415 1.90968 98.1694C0.737581 96.9973 0.0791016 95.4076 0.0791016 93.75V6.25C0.0791016 4.5924 0.737581 3.00268 1.90968 1.83058C3.08179 0.658479 4.6715 0 6.3291 0H93.8291C95.4867 0 97.0764 0.658479 98.2485 1.83058C99.4206 3.00268 100.079 4.5924 100.079 6.25ZM95.9124 6.25C95.9124 5.69747 95.6929 5.16756 95.3022 4.77686C94.9115 4.38616 94.3816 4.16667 93.8291 4.16667H6.3291C5.77657 4.16667 5.24666 4.38616 4.85596 4.77686C4.46526 5.16756 4.24577 5.69747 4.24577 6.25V93.75C4.24577 94.3025 4.46526 94.8324 4.85596 95.2231C5.24666 95.6138 5.77657 95.8333 6.3291 95.8333H93.8291C94.3816 95.8333 94.9115 95.6138 95.3022 95.2231C95.6929 94.8324 95.9124 94.3025 95.9124 93.75V6.25Z" fill="black"/>
</svg>
