<svg width="140" height="104" viewBox="0 0 140 104" fill="none" xmlns="http://www.w3.org/2000/svg">
<path d="M33.5021 11.2197V102H11.7272C9.40354 102 7.17399 101.082 5.52446 99.4451C3.87492 97.8084 2.93911 95.5861 2.92096 93.2625V27.2842M106.498 11.2197V102H128.273C130.596 102 132.826 101.082 134.476 99.4451C136.125 97.8084 137.061 95.5861 137.079 93.2625V27.2842" stroke="black" stroke-width="4" stroke-miterlimit="10"/>
<path d="M70 77.6107L137.079 27.9034V15.5195C137.073 13.0141 136.372 10.5595 135.055 8.42823C133.738 6.29696 131.856 4.57249 129.618 3.44634C127.38 2.32019 124.873 1.83642 122.377 2.04878C119.881 2.26113 117.492 3.16129 115.476 4.64929L70 38.4296L24.5239 4.64929C22.5082 3.16129 20.1195 2.26113 17.6231 2.04878C15.1267 1.83642 12.6203 2.32019 10.3822 3.44634C8.14418 4.57249 6.26208 6.29696 4.94495 8.42823C3.62782 10.5595 2.92722 13.0141 2.92096 15.5195V27.9034L70 77.6107Z" stroke="black" stroke-width="4" stroke-miterlimit="10"/>
</svg>
